<mxfile host="Electron" modified="2024-07-24T08:51:07.721Z" agent="Mozilla/5.0 (Windows NT 10.0; Win64; x64) AppleWebKit/537.36 (KHTML, like Gecko) draw.io/21.7.5 Chrome/114.0.5735.289 Electron/25.8.1 Safari/537.36" etag="a0rE7ehRyRouuGgWP_DN" version="21.7.5" type="device">
  <diagram name="ページ1" id="J7CDlE60wi0123l-ipHz">
    <mxGraphModel dx="1434" dy="884" grid="1" gridSize="10" guides="1" tooltips="1" connect="1" arrows="1" fold="1" page="1" pageScale="1" pageWidth="827" pageHeight="1169" math="0" shadow="0">
      <root>
        <mxCell id="0" />
        <mxCell id="1" parent="0" />
        <mxCell id="-XWSii3jX0R2CB8Mwti1-7" value="layer for business rules" style="rounded=0;whiteSpace=wrap;html=1;fillColor=#f8cecc;strokeColor=#b85450;align=right;spacingLeft=20;spacingRight=20;" parent="1" vertex="1">
          <mxGeometry x="120" y="80" width="640" height="300" as="geometry" />
        </mxCell>
        <mxCell id="-XWSii3jX0R2CB8Mwti1-1" value="Application" style="rounded=1;whiteSpace=wrap;html=1;" parent="1" vertex="1">
          <mxGeometry x="160" y="120" width="120" height="220" as="geometry" />
        </mxCell>
        <mxCell id="-XWSii3jX0R2CB8Mwti1-2" value="Domain Model" style="rounded=1;whiteSpace=wrap;html=1;" parent="1" vertex="1">
          <mxGeometry x="320" y="120" width="120" height="60" as="geometry" />
        </mxCell>
        <mxCell id="-XWSii3jX0R2CB8Mwti1-3" value="Domain Services" style="rounded=1;whiteSpace=wrap;html=1;" parent="1" vertex="1">
          <mxGeometry x="320" y="200" width="120" height="60" as="geometry" />
        </mxCell>
        <mxCell id="-XWSii3jX0R2CB8Mwti1-4" value="Application Services" style="rounded=1;whiteSpace=wrap;html=1;" parent="1" vertex="1">
          <mxGeometry x="320" y="280" width="120" height="60" as="geometry" />
        </mxCell>
        <mxCell id="-XWSii3jX0R2CB8Mwti1-5" value="Enterprise Business Rules" style="rounded=1;whiteSpace=wrap;html=1;" parent="1" vertex="1">
          <mxGeometry x="480" y="120" width="120" height="140" as="geometry" />
        </mxCell>
        <mxCell id="-XWSii3jX0R2CB8Mwti1-6" value="Application Business Rules" style="rounded=1;whiteSpace=wrap;html=1;" parent="1" vertex="1">
          <mxGeometry x="480" y="280" width="120" height="60" as="geometry" />
        </mxCell>
        <mxCell id="-XWSii3jX0R2CB8Mwti1-8" value="layer for interfaces" style="rounded=0;whiteSpace=wrap;html=1;fillColor=#d5e8d4;strokeColor=#82b366;align=right;spacingLeft=20;spacingRight=20;" parent="1" vertex="1">
          <mxGeometry x="120" y="400" width="640" height="220" as="geometry" />
        </mxCell>
        <mxCell id="-XWSii3jX0R2CB8Mwti1-9" value="Adapter" style="rounded=1;whiteSpace=wrap;html=1;" parent="1" vertex="1">
          <mxGeometry x="160" y="440" width="120" height="140" as="geometry" />
        </mxCell>
        <mxCell id="-XWSii3jX0R2CB8Mwti1-10" value="User Interface, Infrastructure, Tests" style="rounded=1;whiteSpace=wrap;html=1;" parent="1" vertex="1">
          <mxGeometry x="320" y="440" width="120" height="140" as="geometry" />
        </mxCell>
        <mxCell id="-XWSii3jX0R2CB8Mwti1-11" value="Interface Adapters" style="rounded=1;whiteSpace=wrap;html=1;" parent="1" vertex="1">
          <mxGeometry x="480" y="440" width="120" height="60" as="geometry" />
        </mxCell>
        <mxCell id="-XWSii3jX0R2CB8Mwti1-12" value="Frameworks &amp;amp; Drivers" style="rounded=1;whiteSpace=wrap;html=1;" parent="1" vertex="1">
          <mxGeometry x="480" y="520" width="120" height="60" as="geometry" />
        </mxCell>
        <mxCell id="-XWSii3jX0R2CB8Mwti1-13" value="" style="line;strokeWidth=2;direction=south;html=1;" parent="1" vertex="1">
          <mxGeometry x="280" y="40" width="40" height="660" as="geometry" />
        </mxCell>
        <mxCell id="-XWSii3jX0R2CB8Mwti1-14" value="" style="line;strokeWidth=2;direction=south;html=1;" parent="1" vertex="1">
          <mxGeometry x="440" y="40" width="40" height="660" as="geometry" />
        </mxCell>
        <mxCell id="-XWSii3jX0R2CB8Mwti1-15" value="Port" style="rounded=0;whiteSpace=wrap;html=1;" parent="1" vertex="1">
          <mxGeometry x="190" y="330" width="60" height="20" as="geometry" />
        </mxCell>
        <mxCell id="-XWSii3jX0R2CB8Mwti1-16" value="Hexagonal Architecture" style="text;html=1;strokeColor=none;fillColor=none;align=center;verticalAlign=middle;whiteSpace=wrap;rounded=0;fontStyle=1" parent="1" vertex="1">
          <mxGeometry x="140" y="40" width="160" height="30" as="geometry" />
        </mxCell>
        <mxCell id="-XWSii3jX0R2CB8Mwti1-18" value="Onion Architecture" style="text;html=1;strokeColor=none;fillColor=none;align=center;verticalAlign=middle;whiteSpace=wrap;rounded=0;fontStyle=1" parent="1" vertex="1">
          <mxGeometry x="300" y="40" width="160" height="30" as="geometry" />
        </mxCell>
        <mxCell id="-XWSii3jX0R2CB8Mwti1-19" value="Clean Architecture" style="text;html=1;strokeColor=none;fillColor=none;align=center;verticalAlign=middle;whiteSpace=wrap;rounded=0;fontStyle=1" parent="1" vertex="1">
          <mxGeometry x="460" y="40" width="160" height="30" as="geometry" />
        </mxCell>
        <mxCell id="-XWSii3jX0R2CB8Mwti1-20" value="external entities" style="rounded=1;whiteSpace=wrap;html=1;" parent="1" vertex="1">
          <mxGeometry x="160" y="640" width="120" height="60" as="geometry" />
        </mxCell>
        <mxCell id="625wDW0jpNMrZjgQSJIt-1" value="" style="endArrow=classic;startArrow=classic;html=1;rounded=0;" edge="1" parent="1">
          <mxGeometry width="50" height="50" relative="1" as="geometry">
            <mxPoint x="80" y="620" as="sourcePoint" />
            <mxPoint x="80" y="80" as="targetPoint" />
          </mxGeometry>
        </mxCell>
        <mxCell id="625wDW0jpNMrZjgQSJIt-3" value="inside" style="text;html=1;strokeColor=none;fillColor=none;align=center;verticalAlign=middle;whiteSpace=wrap;rounded=0;" vertex="1" parent="1">
          <mxGeometry x="50" y="50" width="60" height="30" as="geometry" />
        </mxCell>
        <mxCell id="625wDW0jpNMrZjgQSJIt-4" value="outside" style="text;html=1;strokeColor=none;fillColor=none;align=center;verticalAlign=middle;whiteSpace=wrap;rounded=0;" vertex="1" parent="1">
          <mxGeometry x="50" y="620" width="60" height="30" as="geometry" />
        </mxCell>
      </root>
    </mxGraphModel>
  </diagram>
</mxfile>
